<?xml version="1.0" encoding="UTF-8" standalone="no"?>
<svg
   xmlns:dc="http://purl.org/dc/elements/1.1/"
   xmlns:cc="http://creativecommons.org/ns#"
   xmlns:rdf="http://www.w3.org/1999/02/22-rdf-syntax-ns#"
   xmlns:svg="http://www.w3.org/2000/svg"
   xmlns="http://www.w3.org/2000/svg"
   xmlns:sodipodi="http://sodipodi.sourceforge.net/DTD/sodipodi-0.dtd"
   xmlns:inkscape="http://www.inkscape.org/namespaces/inkscape"
   viewBox="0 0 152.7 100.69"
   version="1.1"
   id="svg6"
   sodipodi:docname="logo.svg"
   inkscape:version="0.92.4 (5da689c313, 2019-01-14)">
  <metadata
     id="metadata12">
    <rdf:RDF>
      <cc:Work
         rdf:about="">
        <dc:format>image/svg+xml</dc:format>
        <dc:type
           rdf:resource="http://purl.org/dc/dcmitype/StillImage" />
      </cc:Work>
    </rdf:RDF>
  </metadata>
  <defs
     id="defs10" />
  <sodipodi:namedview
     pagecolor="#ffffff"
     bordercolor="#666666"
     borderopacity="1"
     objecttolerance="10"
     gridtolerance="10"
     guidetolerance="10"
     inkscape:pageopacity="0"
     inkscape:pageshadow="2"
     inkscape:window-width="1920"
     inkscape:window-height="1001"
     id="namedview8"
     showgrid="false"
     inkscape:zoom="2.714523"
     inkscape:cx="185.23699"
     inkscape:cy="46.460093"
     inkscape:window-x="-9"
     inkscape:window-y="-9"
     inkscape:window-maximized="1"
     inkscape:current-layer="svg6" />
  <g
     id="g2244"
     transform="matrix(1.0664698,0,0,1.0664698,0.87453601,-4.8655484)">
    <g
       inkscape:export-ydpi="89"
       inkscape:export-xdpi="89"
       inkscape:export-filename="C:\Users\zwias_000\Downloads\lepszy.png"
       id="g1922"
       transform="matrix(0.20745831,0,0,0.20745831,-20.569476,-9.36002)">
      <polygon
         id="polygon1842"
         points="190.64,400.51 190.64,455.66 217.57,455.66 217.57,462.74 182.26,462.74 182.26,400.51 " />
      <path
         id="path1844"
         d="m 257.99,456.57 c -0.96,1.16 -2.1,2.16 -3.43,3.02 -1.34,0.85 -2.76,1.56 -4.28,2.11 -1.52,0.55 -3.09,0.96 -4.71,1.24 -1.62,0.28 -3.23,0.41 -4.82,0.41 -3.04,0 -5.84,-0.52 -8.4,-1.54 -2.56,-1.03 -4.78,-2.53 -6.64,-4.52 -1.87,-1.98 -3.32,-4.44 -4.36,-7.36 -1.04,-2.92 -1.56,-6.28 -1.56,-10.07 0,-3.07 0.47,-5.94 1.41,-8.6 0.94,-2.66 2.29,-4.97 4.06,-6.93 1.76,-1.95 3.92,-3.49 6.47,-4.6 2.55,-1.11 5.41,-1.67 8.6,-1.67 2.64,0 5.08,0.44 7.32,1.32 2.24,0.89 4.18,2.16 5.82,3.82 1.63,1.67 2.91,3.72 3.84,6.17 0.93,2.45 1.39,5.23 1.39,8.36 0,1.21 -0.13,2.03 -0.39,2.43 -0.26,0.41 -0.75,0.61 -1.47,0.61 h -29.4 c 0.09,2.78 0.47,5.2 1.15,7.25 0.68,2.05 1.63,3.77 2.84,5.15 1.21,1.37 2.67,2.4 4.34,3.08 1.68,0.68 3.56,1.02 5.64,1.02 1.94,0 3.61,-0.22 5.01,-0.67 1.41,-0.45 2.61,-0.94 3.63,-1.45 1.01,-0.52 1.86,-1.01 2.54,-1.45 0.68,-0.45 1.27,-0.68 1.76,-0.68 0.64,0 1.13,0.25 1.48,0.74 z m -6.25,-20.62 c 0,-1.79 -0.25,-3.44 -0.76,-4.93 -0.51,-1.49 -1.25,-2.78 -2.21,-3.86 -0.97,-1.09 -2.15,-1.93 -3.54,-2.52 -1.39,-0.6 -2.96,-0.89 -4.73,-0.89 -3.71,0 -6.64,1.08 -8.79,3.23 -2.16,2.16 -3.49,5.15 -4.01,8.97 z"
         inkscape:connector-curvature="0" />
      <path
         id="path1846"
         d="m 275.97,425.57 c 1.85,-2.29 3.99,-4.13 6.42,-5.52 2.43,-1.39 5.21,-2.08 8.34,-2.08 2.54,0 4.85,0.48 6.9,1.45 2.06,0.97 3.81,2.41 5.26,4.3 1.44,1.89 2.56,4.25 3.34,7.05 0.78,2.81 1.17,6.04 1.17,9.69 0,3.24 -0.43,6.26 -1.31,9.06 -0.87,2.79 -2.12,5.21 -3.75,7.25 -1.64,2.04 -3.63,3.65 -6,4.82 -2.36,1.17 -5.01,1.76 -7.97,1.76 -2.69,0 -5,-0.46 -6.93,-1.37 -1.93,-0.92 -3.63,-2.18 -5.1,-3.8 v 19.45 h -7.77 v -58.88 h 4.64 c 1.1,0 1.78,0.54 2.04,1.61 z m 0.39,26.57 c 1.42,1.91 2.97,3.26 4.65,4.04 1.68,0.78 3.56,1.17 5.64,1.17 4.11,0 7.27,-1.46 9.47,-4.39 2.2,-2.92 3.3,-7.09 3.3,-12.51 0,-2.86 -0.26,-5.33 -0.76,-7.38 -0.5,-2.06 -1.24,-3.74 -2.19,-5.06 -0.96,-1.32 -2.13,-2.28 -3.52,-2.88 -1.39,-0.61 -2.97,-0.92 -4.74,-0.92 -2.52,0 -4.73,0.58 -6.62,1.74 -1.9,1.15 -3.64,2.79 -5.23,4.91 z"
         inkscape:connector-curvature="0" />
      <path
         id="path1848"
         d="m 343.32,426 c -0.35,0.64 -0.89,0.96 -1.61,0.96 -0.43,0 -0.93,-0.16 -1.47,-0.48 -0.55,-0.32 -1.22,-0.67 -2.02,-1.06 -0.8,-0.39 -1.74,-0.75 -2.84,-1.09 -1.1,-0.33 -2.4,-0.5 -3.91,-0.5 -1.3,0 -2.48,0.17 -3.52,0.5 -1.04,0.34 -1.94,0.79 -2.67,1.37 -0.74,0.58 -1.3,1.25 -1.69,2.02 -0.39,0.76 -0.59,1.6 -0.59,2.5 0,1.13 0.33,2.07 0.98,2.82 0.65,0.75 1.51,1.4 2.58,1.95 1.07,0.55 2.29,1.04 3.65,1.46 1.36,0.42 2.76,0.86 4.19,1.34 1.43,0.48 2.83,1.01 4.19,1.59 1.36,0.58 2.57,1.3 3.65,2.17 1.07,0.87 1.93,1.93 2.58,3.19 0.65,1.26 0.98,2.78 0.98,4.54 0,2.03 -0.36,3.9 -1.08,5.62 -0.72,1.72 -1.79,3.21 -3.21,4.47 -1.42,1.26 -3.15,2.25 -5.21,2.98 -2.06,0.72 -4.43,1.08 -7.12,1.08 -3.07,0 -5.85,-0.5 -8.34,-1.49 -2.49,-1 -4.6,-2.28 -6.34,-3.85 l 1.82,-2.95 c 0.23,-0.38 0.5,-0.67 0.82,-0.87 0.32,-0.2 0.72,-0.3 1.21,-0.3 0.52,0 1.07,0.2 1.65,0.61 0.58,0.41 1.28,0.85 2.11,1.35 0.82,0.49 1.83,0.94 3.02,1.34 1.18,0.41 2.66,0.61 4.43,0.61 1.5,0 2.82,-0.2 3.95,-0.59 1.13,-0.39 2.07,-0.92 2.82,-1.59 0.75,-0.67 1.31,-1.43 1.67,-2.3 0.36,-0.87 0.54,-1.8 0.54,-2.78 0,-1.21 -0.33,-2.22 -0.98,-3.02 -0.65,-0.79 -1.51,-1.48 -2.59,-2.04 -1.07,-0.56 -2.29,-1.05 -3.66,-1.47 -1.38,-0.42 -2.78,-0.86 -4.21,-1.33 -1.43,-0.46 -2.84,-0.99 -4.21,-1.58 -1.38,-0.6 -2.6,-1.34 -3.67,-2.24 -1.07,-0.9 -1.93,-2 -2.58,-3.32 -0.65,-1.32 -0.98,-2.92 -0.98,-4.8 0,-1.68 0.35,-3.29 1.04,-4.85 0.69,-1.55 1.71,-2.91 3.04,-4.08 1.33,-1.17 2.97,-2.11 4.91,-2.8 1.94,-0.69 4.16,-1.04 6.64,-1.04 2.89,0 5.5,0.45 7.79,1.37 2.3,0.91 4.29,2.16 5.97,3.76 z"
         inkscape:connector-curvature="0" />
      <path
         id="path1850"
         d="m 386.09,422.05 c 0,0.55 -0.09,1.08 -0.28,1.61 -0.19,0.52 -0.44,0.97 -0.76,1.34 l -23.84,31.7 h 24.06 v 6.04 h -33.13 v -3.21 c 0,-0.38 0.09,-0.82 0.26,-1.33 0.17,-0.5 0.43,-0.99 0.78,-1.45 l 23.97,-31.92 h -23.67 v -6.07 h 32.61 z"
         inkscape:connector-curvature="0" />
      <path
         id="path1852"
         d="m 433.38,418.75 -24.53,56.97 c -0.26,0.58 -0.59,1.04 -0.98,1.39 -0.39,0.35 -0.99,0.52 -1.8,0.52 h -5.73 l 8.03,-17.46 -18.15,-41.43 h 6.68 c 0.67,0 1.2,0.16 1.59,0.5 0.39,0.33 0.66,0.7 0.8,1.11 l 11.77,27.7 c 0.46,1.21 0.85,2.49 1.17,3.82 0.4,-1.36 0.84,-2.65 1.3,-3.87 l 11.42,-27.66 c 0.18,-0.46 0.47,-0.84 0.89,-1.15 0.42,-0.3 0.89,-0.45 1.41,-0.45 h 6.13 z"
         inkscape:connector-curvature="0" />
      <path
         id="path1854"
         d="m 521.93,400.51 -19.41,62.23 h -7.56 L 479.2,415.28 c -0.14,-0.46 -0.28,-0.96 -0.41,-1.48 -0.13,-0.52 -0.27,-1.07 -0.41,-1.65 -0.14,0.58 -0.29,1.13 -0.43,1.65 -0.14,0.52 -0.29,1.02 -0.43,1.48 l -15.85,47.46 h -7.56 L 434.7,400.51 h 6.99 c 0.75,0 1.38,0.19 1.89,0.57 0.5,0.38 0.83,0.85 0.98,1.43 l 12.85,43.25 c 0.2,0.78 0.4,1.62 0.59,2.52 0.19,0.9 0.37,1.85 0.54,2.87 0.21,-1.01 0.41,-1.98 0.63,-2.88 0.22,-0.92 0.45,-1.75 0.72,-2.5 l 14.63,-43.25 c 0.18,-0.49 0.51,-0.95 1.02,-1.37 0.5,-0.42 1.12,-0.63 1.84,-0.63 h 2.43 c 0.75,0 1.36,0.19 1.82,0.57 0.46,0.38 0.81,0.85 1.04,1.43 l 14.59,43.25 c 0.26,0.75 0.5,1.56 0.72,2.43 0.22,0.87 0.43,1.78 0.63,2.73 0.14,-0.96 0.31,-1.86 0.48,-2.73 0.17,-0.87 0.36,-1.68 0.56,-2.43 l 12.9,-43.25 c 0.14,-0.52 0.47,-0.98 0.98,-1.39 0.5,-0.4 1.12,-0.61 1.84,-0.61 h 6.56 z"
         inkscape:connector-curvature="0" />
      <path
         id="path1856"
         d="m 560.62,456.57 c -0.96,1.16 -2.1,2.16 -3.43,3.02 -1.34,0.85 -2.76,1.56 -4.28,2.11 -1.52,0.55 -3.09,0.96 -4.71,1.24 -1.62,0.28 -3.23,0.41 -4.82,0.41 -3.04,0 -5.84,-0.52 -8.4,-1.54 -2.56,-1.03 -4.78,-2.53 -6.64,-4.52 -1.87,-1.98 -3.33,-4.44 -4.36,-7.36 -1.04,-2.92 -1.56,-6.28 -1.56,-10.07 0,-3.07 0.47,-5.94 1.41,-8.6 0.94,-2.66 2.29,-4.97 4.06,-6.93 1.76,-1.95 3.92,-3.49 6.47,-4.6 2.55,-1.11 5.41,-1.67 8.6,-1.67 2.64,0 5.08,0.44 7.32,1.32 2.24,0.89 4.18,2.16 5.82,3.82 1.63,1.67 2.91,3.72 3.84,6.17 0.93,2.45 1.39,5.23 1.39,8.36 0,1.21 -0.13,2.03 -0.39,2.43 -0.26,0.41 -0.75,0.61 -1.47,0.61 h -29.4 c 0.09,2.78 0.47,5.2 1.15,7.25 0.68,2.05 1.63,3.77 2.84,5.15 1.21,1.37 2.67,2.4 4.34,3.08 1.68,0.68 3.56,1.02 5.64,1.02 1.94,0 3.61,-0.22 5.01,-0.67 1.41,-0.45 2.61,-0.94 3.63,-1.45 1.01,-0.52 1.86,-1.01 2.54,-1.45 0.68,-0.45 1.27,-0.68 1.76,-0.68 0.64,0 1.13,0.25 1.48,0.74 z m -6.26,-20.62 c 0,-1.79 -0.25,-3.44 -0.76,-4.93 -0.51,-1.49 -1.25,-2.78 -2.21,-3.86 -0.97,-1.09 -2.15,-1.93 -3.54,-2.52 -1.39,-0.6 -2.96,-0.89 -4.73,-0.89 -3.71,0 -6.64,1.08 -8.79,3.23 -2.16,2.16 -3.49,5.15 -4.02,8.97 z"
         inkscape:connector-curvature="0" />
      <path
         id="path1858"
         d="m 578.98,425.09 c 1.85,-2.14 3.94,-3.85 6.28,-5.13 2.33,-1.27 5.01,-1.91 8.05,-1.91 2.57,0 4.9,0.49 6.97,1.48 2.07,0.99 3.83,2.41 5.27,4.28 1.45,1.87 2.56,4.13 3.33,6.8 0.76,2.66 1.15,5.66 1.15,8.99 0,3.56 -0.43,6.8 -1.3,9.73 -0.87,2.92 -2.12,5.42 -3.76,7.49 -1.64,2.07 -3.62,3.68 -5.97,4.82 -2.34,1.14 -4.98,1.72 -7.9,1.72 -2.9,0 -5.33,-0.54 -7.32,-1.63 -1.98,-1.09 -3.71,-2.63 -5.19,-4.63 l -0.39,3.99 c -0.23,1.1 -0.9,1.65 -2,1.65 h -5 v -63.96 h 7.77 v 26.31 z m 0,27.05 c 1.42,1.91 2.97,3.26 4.67,4.04 1.69,0.78 3.55,1.17 5.58,1.17 4.14,0 7.31,-1.46 9.51,-4.39 2.2,-2.92 3.3,-7.28 3.3,-13.07 0,-5.38 -0.98,-9.34 -2.93,-11.88 -1.95,-2.53 -4.74,-3.8 -8.36,-3.8 -2.52,0 -4.71,0.58 -6.58,1.74 -1.87,1.15 -3.59,2.79 -5.19,4.91 z"
         inkscape:connector-curvature="0" />
      <path
         id="path1860"
         d="m 618.98,457.96 c 0,-0.75 0.14,-1.46 0.41,-2.13 0.28,-0.66 0.65,-1.24 1.13,-1.73 0.48,-0.49 1.05,-0.89 1.72,-1.17 0.66,-0.29 1.37,-0.43 2.13,-0.43 0.75,0 1.46,0.14 2.13,0.43 0.67,0.29 1.25,0.68 1.74,1.17 0.49,0.49 0.89,1.07 1.17,1.73 0.29,0.67 0.43,1.38 0.43,2.13 0,0.78 -0.14,1.49 -0.43,2.15 -0.29,0.65 -0.68,1.22 -1.17,1.71 -0.49,0.49 -1.07,0.88 -1.74,1.15 -0.67,0.27 -1.38,0.41 -2.13,0.41 -0.75,0 -1.46,-0.14 -2.13,-0.41 -0.67,-0.28 -1.24,-0.66 -1.72,-1.15 -0.48,-0.49 -0.85,-1.06 -1.13,-1.71 -0.27,-0.65 -0.41,-1.37 -0.41,-2.15"
         inkscape:connector-curvature="0" />
      <path
         id="path1862"
         d="m 648.59,425.57 c 1.85,-2.29 3.99,-4.13 6.42,-5.52 2.43,-1.39 5.21,-2.08 8.34,-2.08 2.54,0 4.85,0.48 6.9,1.45 2.06,0.97 3.81,2.41 5.26,4.3 1.44,1.89 2.56,4.25 3.34,7.05 0.78,2.81 1.17,6.04 1.17,9.69 0,3.24 -0.43,6.26 -1.31,9.06 -0.87,2.79 -2.12,5.21 -3.75,7.25 -1.64,2.04 -3.63,3.65 -6,4.82 -2.36,1.17 -5.01,1.76 -7.97,1.76 -2.69,0 -5,-0.46 -6.93,-1.37 -1.93,-0.92 -3.63,-2.18 -5.1,-3.8 v 19.45 h -7.77 v -58.88 h 4.64 c 1.1,0 1.78,0.54 2.04,1.61 z m 0.39,26.57 c 1.42,1.91 2.97,3.26 4.65,4.04 1.68,0.78 3.56,1.17 5.64,1.17 4.11,0 7.27,-1.46 9.47,-4.39 2.2,-2.92 3.3,-7.09 3.3,-12.51 0,-2.86 -0.26,-5.33 -0.76,-7.38 -0.5,-2.06 -1.24,-3.74 -2.19,-5.06 -0.96,-1.32 -2.13,-2.28 -3.52,-2.88 -1.39,-0.61 -2.97,-0.92 -4.74,-0.92 -2.52,0 -4.73,0.58 -6.62,1.74 -1.9,1.15 -3.64,2.79 -5.23,4.91 z"
         inkscape:connector-curvature="0" />
      <rect
         id="rect1864"
         height="63.959999"
         width="7.73"
         y="398.76999"
         x="690.58002" />
      <path
         id="path1866"
         d="m 190.28,482.39 c 3.15,0 5.52,0.69 7.11,2.06 1.6,1.38 2.4,3.35 2.4,5.9 0,1.18 -0.22,2.26 -0.66,3.24 -0.44,0.99 -1.07,1.84 -1.9,2.55 -0.82,0.71 -1.82,1.27 -2.99,1.67 -1.17,0.4 -2.49,0.6 -3.96,0.6 h -4.98 v 10.81 h -1.96 V 482.4 h 6.94 z m 0,14.46 c 1.17,0 2.23,-0.16 3.16,-0.49 0.94,-0.33 1.73,-0.78 2.38,-1.37 0.65,-0.58 1.15,-1.27 1.5,-2.06 0.35,-0.79 0.52,-1.65 0.52,-2.59 0,-2.06 -0.63,-3.64 -1.89,-4.76 -1.26,-1.11 -3.15,-1.67 -5.67,-1.67 h -4.98 v 12.93 h 4.98 z"
         inkscape:connector-curvature="0" />
      <path
         id="path1868"
         d="m 205.07,494.9 c 0.29,-0.77 0.62,-1.46 0.99,-2.05 0.37,-0.6 0.8,-1.11 1.29,-1.53 0.48,-0.42 1.03,-0.74 1.63,-0.96 0.6,-0.22 1.27,-0.33 2,-0.33 0.39,0 0.77,0.03 1.16,0.1 0.38,0.07 0.71,0.2 1,0.37 l -0.15,1.25 c -0.06,0.21 -0.18,0.3 -0.36,0.3 -0.15,0 -0.38,-0.04 -0.69,-0.13 -0.31,-0.09 -0.72,-0.13 -1.22,-0.13 -0.73,0 -1.38,0.11 -1.94,0.33 -0.56,0.22 -1.07,0.56 -1.52,1 -0.45,0.44 -0.84,0.99 -1.17,1.64 -0.34,0.65 -0.64,1.4 -0.92,2.25 v 12.21 h -1.82 v -18.86 h 0.97 c 0.22,0 0.37,0.05 0.45,0.13 0.09,0.09 0.14,0.24 0.17,0.45 z"
         inkscape:connector-curvature="0" />
      <path
         id="path1870"
         d="m 215.17,493.02 c 0.99,-0.99 2.02,-1.73 3.11,-2.23 1.08,-0.5 2.32,-0.76 3.7,-0.76 1.01,0 1.89,0.16 2.66,0.48 0.75,0.32 1.39,0.79 1.88,1.38 0.5,0.6 0.88,1.33 1.13,2.18 0.25,0.85 0.38,1.8 0.38,2.85 v 12.28 h -0.72 c -0.38,0 -0.62,-0.18 -0.7,-0.53 l -0.27,-2.43 c -0.52,0.5 -1.03,0.96 -1.54,1.37 -0.51,0.4 -1.04,0.74 -1.6,1.02 -0.56,0.28 -1.15,0.49 -1.8,0.64 -0.65,0.15 -1.35,0.23 -2.12,0.23 -0.65,0 -1.27,-0.09 -1.88,-0.28 -0.6,-0.19 -1.14,-0.48 -1.62,-0.88 -0.47,-0.39 -0.85,-0.9 -1.14,-1.5 -0.28,-0.62 -0.42,-1.35 -0.42,-2.21 0,-0.8 0.23,-1.53 0.68,-2.22 0.46,-0.68 1.17,-1.28 2.14,-1.78 0.97,-0.5 2.22,-0.91 3.74,-1.21 1.52,-0.3 3.35,-0.48 5.49,-0.53 v -1.97 c 0,-1.75 -0.38,-3.09 -1.13,-4.03 -0.75,-0.94 -1.87,-1.41 -3.35,-1.41 -0.91,0 -1.69,0.13 -2.33,0.38 -0.64,0.25 -1.18,0.53 -1.62,0.83 -0.44,0.31 -0.8,0.58 -1.08,0.83 -0.28,0.25 -0.51,0.38 -0.7,0.38 -0.14,0 -0.25,-0.03 -0.34,-0.09 -0.09,-0.07 -0.16,-0.14 -0.23,-0.25 z m 11.09,7.07 c -1.79,0.06 -3.34,0.21 -4.63,0.43 -1.3,0.22 -2.37,0.52 -3.2,0.9 -0.84,0.38 -1.46,0.83 -1.87,1.36 -0.4,0.52 -0.61,1.12 -0.61,1.79 0,0.63 0.1,1.18 0.31,1.64 0.21,0.46 0.49,0.84 0.83,1.14 0.35,0.3 0.75,0.52 1.2,0.66 0.46,0.14 0.93,0.21 1.42,0.21 0.73,0 1.41,-0.08 2.02,-0.24 0.62,-0.16 1.18,-0.38 1.71,-0.66 0.53,-0.28 1.02,-0.62 1.47,-1.01 0.45,-0.39 0.9,-0.81 1.35,-1.27 z"
         inkscape:connector-curvature="0" />
      <path
         id="path1872"
         d="m 246.08,492.87 c -0.06,0.07 -0.12,0.12 -0.18,0.16 -0.05,0.05 -0.13,0.06 -0.24,0.06 -0.12,0 -0.3,-0.08 -0.51,-0.25 -0.22,-0.17 -0.51,-0.36 -0.88,-0.56 -0.37,-0.2 -0.82,-0.39 -1.37,-0.56 -0.55,-0.17 -1.22,-0.26 -2,-0.26 -1.09,0 -2.05,0.2 -2.89,0.58 -0.84,0.39 -1.55,0.94 -2.13,1.66 -0.58,0.72 -1.02,1.6 -1.32,2.61 -0.3,1.02 -0.44,2.17 -0.44,3.45 0,1.32 0.15,2.5 0.46,3.52 0.31,1.02 0.75,1.88 1.32,2.59 0.57,0.7 1.26,1.24 2.07,1.6 0.81,0.37 1.71,0.55 2.69,0.55 0.91,0 1.67,-0.1 2.28,-0.32 0.61,-0.21 1.12,-0.45 1.52,-0.7 0.4,-0.25 0.71,-0.48 0.94,-0.7 0.23,-0.22 0.41,-0.33 0.57,-0.33 0.15,0 0.28,0.07 0.38,0.19 l 0.47,0.61 c -0.29,0.38 -0.66,0.73 -1.1,1.06 -0.44,0.33 -0.95,0.61 -1.5,0.85 -0.56,0.24 -1.16,0.43 -1.81,0.56 -0.65,0.13 -1.33,0.2 -2.04,0.2 -1.2,0 -2.3,-0.22 -3.29,-0.66 -0.99,-0.44 -1.84,-1.07 -2.56,-1.89 -0.71,-0.83 -1.27,-1.84 -1.67,-3.04 -0.4,-1.2 -0.59,-2.57 -0.59,-4.1 0,-1.44 0.19,-2.76 0.57,-3.94 0.38,-1.19 0.94,-2.21 1.67,-3.07 0.73,-0.86 1.63,-1.53 2.68,-2 1.06,-0.47 2.27,-0.71 3.63,-0.71 1.22,0 2.31,0.2 3.26,0.59 0.95,0.39 1.78,0.92 2.48,1.59 z"
         inkscape:connector-curvature="0" />
      <path
         id="path1874"
         d="m 257.74,490.05 c 1.35,0 2.56,0.23 3.63,0.69 1.07,0.46 1.97,1.12 2.7,1.96 0.73,0.85 1.29,1.87 1.68,3.07 0.39,1.19 0.58,2.53 0.58,4.01 0,1.48 -0.19,2.81 -0.58,4 -0.38,1.19 -0.94,2.21 -1.68,3.05 -0.73,0.85 -1.63,1.5 -2.7,1.95 -1.07,0.45 -2.28,0.68 -3.63,0.68 -1.35,0 -2.56,-0.23 -3.63,-0.68 -1.07,-0.45 -1.97,-1.1 -2.71,-1.95 -0.74,-0.84 -1.3,-1.86 -1.69,-3.05 -0.38,-1.19 -0.58,-2.52 -0.58,-4 0,-1.48 0.2,-2.82 0.58,-4.01 0.39,-1.2 0.95,-2.22 1.69,-3.07 0.74,-0.84 1.65,-1.5 2.71,-1.96 1.07,-0.46 2.28,-0.69 3.63,-0.69 m 0,17.98 c 1.12,0 2.11,-0.19 2.94,-0.58 0.84,-0.38 1.54,-0.94 2.11,-1.66 0.56,-0.72 0.98,-1.59 1.26,-2.6 0.28,-1.02 0.42,-2.16 0.42,-3.42 0,-1.25 -0.14,-2.39 -0.42,-3.41 -0.28,-1.02 -0.7,-1.9 -1.26,-2.63 -0.56,-0.73 -1.27,-1.29 -2.11,-1.68 -0.84,-0.39 -1.82,-0.59 -2.94,-0.59 -1.13,0 -2.11,0.2 -2.95,0.59 -0.84,0.39 -1.54,0.95 -2.1,1.68 -0.57,0.73 -0.99,1.6 -1.27,2.63 -0.28,1.02 -0.43,2.16 -0.43,3.41 0,1.26 0.14,2.4 0.43,3.42 0.29,1.01 0.71,1.88 1.27,2.6 0.56,0.72 1.26,1.27 2.1,1.66 0.84,0.39 1.83,0.58 2.95,0.58"
         inkscape:connector-curvature="0" />
      <path
         id="path1876"
         d="m 295.48,490.35 -6.29,18.86 h -1.35 c -0.22,0 -0.36,-0.13 -0.43,-0.4 l -5.16,-15.31 c -0.06,-0.19 -0.12,-0.38 -0.17,-0.57 -0.05,-0.19 -0.09,-0.38 -0.13,-0.57 -0.06,0.38 -0.16,0.75 -0.29,1.14 l -5.23,15.31 c -0.08,0.27 -0.23,0.4 -0.46,0.4 h -1.29 l -6.29,-18.86 h 1.36 c 0.18,0 0.32,0.05 0.44,0.14 0.12,0.09 0.19,0.2 0.23,0.32 l 4.76,14.88 c 0.07,0.29 0.14,0.57 0.21,0.84 0.07,0.27 0.11,0.54 0.15,0.8 0.08,-0.27 0.15,-0.53 0.23,-0.8 0.07,-0.27 0.16,-0.55 0.27,-0.84 l 5.04,-15.01 c 0.09,-0.28 0.26,-0.42 0.53,-0.42 h 0.74 c 0.28,0 0.46,0.14 0.55,0.42 l 5,15.01 c 0.09,0.29 0.17,0.57 0.25,0.83 0.08,0.27 0.14,0.53 0.21,0.79 0.05,-0.27 0.1,-0.53 0.16,-0.79 0.05,-0.27 0.13,-0.54 0.22,-0.83 l 4.8,-14.88 c 0.05,-0.14 0.13,-0.25 0.25,-0.33 0.11,-0.08 0.25,-0.12 0.4,-0.12 h 1.29 z"
         inkscape:connector-curvature="0" />
      <path
         id="path1878"
         d="m 300.62,493.65 c 0.87,-1.09 1.88,-1.96 3.02,-2.61 1.14,-0.66 2.42,-0.99 3.82,-0.99 1.04,0 1.95,0.16 2.74,0.49 0.79,0.33 1.44,0.8 1.96,1.42 0.51,0.62 0.91,1.37 1.17,2.24 0.27,0.87 0.4,1.86 0.4,2.96 v 12.06 h -1.82 v -12.06 c 0,-1.77 -0.41,-3.16 -1.21,-4.16 -0.81,-1.01 -2.04,-1.51 -3.7,-1.51 -1.22,0 -2.37,0.31 -3.44,0.94 -1.07,0.62 -2.02,1.49 -2.85,2.6 v 14.18 h -1.82 v -18.86 h 1.01 c 0.32,0 0.5,0.15 0.55,0.47 z"
         inkscape:connector-curvature="0" />
      <path
         id="path1880"
         d="m 321.89,483.85 c 0,0.23 -0.04,0.44 -0.14,0.63 -0.09,0.2 -0.22,0.37 -0.37,0.52 -0.15,0.15 -0.33,0.27 -0.53,0.36 -0.21,0.09 -0.42,0.13 -0.65,0.13 -0.23,0 -0.44,-0.05 -0.64,-0.13 -0.21,-0.09 -0.38,-0.21 -0.53,-0.36 -0.15,-0.15 -0.27,-0.32 -0.36,-0.52 -0.08,-0.19 -0.13,-0.41 -0.13,-0.63 0,-0.23 0.05,-0.45 0.13,-0.66 0.09,-0.21 0.21,-0.39 0.36,-0.54 0.15,-0.15 0.33,-0.27 0.53,-0.36 0.2,-0.09 0.41,-0.13 0.64,-0.13 0.23,0 0.44,0.04 0.65,0.13 0.2,0.09 0.38,0.21 0.53,0.36 0.15,0.15 0.28,0.33 0.37,0.54 0.09,0.21 0.14,0.43 0.14,0.66 m -0.78,25.36 h -1.8 v -18.86 h 1.8 z"
         inkscape:connector-curvature="0" />
      <path
         id="path1882"
         d="m 326.36,493.02 c 0.99,-0.99 2.02,-1.73 3.11,-2.23 1.09,-0.5 2.32,-0.76 3.7,-0.76 1.01,0 1.89,0.16 2.65,0.48 0.76,0.32 1.39,0.79 1.88,1.38 0.5,0.6 0.88,1.33 1.13,2.18 0.25,0.85 0.38,1.8 0.38,2.85 v 12.28 h -0.72 c -0.38,0 -0.61,-0.18 -0.7,-0.53 l -0.27,-2.43 c -0.51,0.5 -1.03,0.96 -1.54,1.37 -0.51,0.4 -1.04,0.74 -1.6,1.02 -0.56,0.28 -1.16,0.49 -1.8,0.64 -0.65,0.15 -1.36,0.23 -2.12,0.23 -0.65,0 -1.27,-0.09 -1.88,-0.28 -0.61,-0.19 -1.15,-0.48 -1.62,-0.88 -0.47,-0.39 -0.85,-0.9 -1.14,-1.5 -0.29,-0.62 -0.43,-1.35 -0.43,-2.21 0,-0.8 0.23,-1.53 0.68,-2.22 0.45,-0.68 1.17,-1.28 2.14,-1.78 0.97,-0.5 2.22,-0.91 3.74,-1.21 1.52,-0.3 3.35,-0.48 5.49,-0.53 v -1.97 c 0,-1.75 -0.37,-3.09 -1.13,-4.03 -0.75,-0.94 -1.87,-1.41 -3.35,-1.41 -0.91,0 -1.68,0.13 -2.32,0.38 -0.64,0.25 -1.18,0.53 -1.62,0.83 -0.44,0.31 -0.8,0.58 -1.08,0.83 -0.28,0.25 -0.51,0.38 -0.7,0.38 -0.14,0 -0.25,-0.03 -0.34,-0.09 -0.09,-0.07 -0.16,-0.14 -0.23,-0.25 z m 11.09,7.07 c -1.79,0.06 -3.34,0.21 -4.63,0.43 -1.3,0.22 -2.36,0.52 -3.2,0.9 -0.84,0.38 -1.46,0.83 -1.87,1.36 -0.4,0.52 -0.6,1.12 -0.6,1.79 0,0.63 0.1,1.18 0.31,1.64 0.21,0.46 0.49,0.84 0.83,1.14 0.35,0.3 0.75,0.52 1.2,0.66 0.45,0.14 0.93,0.21 1.42,0.21 0.73,0 1.41,-0.08 2.02,-0.24 0.61,-0.16 1.18,-0.38 1.71,-0.66 0.52,-0.28 1.01,-0.62 1.47,-1.01 0.45,-0.39 0.9,-0.81 1.34,-1.27 z"
         inkscape:connector-curvature="0" />
      <path
         id="path1884"
         d="m 377.69,495.79 c 0,2.07 -0.31,3.94 -0.93,5.59 -0.62,1.66 -1.49,3.06 -2.62,4.23 -1.12,1.16 -2.47,2.05 -4.05,2.67 -1.58,0.62 -3.31,0.93 -5.2,0.93 h -9.8 v -26.82 h 9.8 c 1.89,0 3.63,0.31 5.2,0.93 1.58,0.62 2.92,1.51 4.05,2.68 1.12,1.16 2,2.57 2.62,4.23 0.62,1.64 0.93,3.5 0.93,5.56 m -2.01,0 c 0,-1.87 -0.26,-3.54 -0.77,-5 -0.52,-1.47 -1.26,-2.71 -2.2,-3.72 -0.95,-1.01 -2.09,-1.78 -3.41,-2.31 -1.33,-0.54 -2.8,-0.8 -4.4,-0.8 h -7.85 v 23.68 h 7.85 c 1.6,0 3.07,-0.27 4.4,-0.8 1.32,-0.53 2.46,-1.3 3.41,-2.31 0.95,-1.01 1.68,-2.25 2.2,-3.72 0.52,-1.46 0.77,-3.14 0.77,-5.02"
         inkscape:connector-curvature="0" />
      <path
         id="path1886"
         d="m 389.6,490.05 c 1.35,0 2.56,0.23 3.63,0.69 1.07,0.46 1.97,1.12 2.7,1.96 0.73,0.85 1.29,1.87 1.68,3.07 0.38,1.19 0.58,2.53 0.58,4.01 0,1.48 -0.2,2.81 -0.58,4 -0.38,1.19 -0.95,2.21 -1.68,3.05 -0.74,0.85 -1.64,1.5 -2.7,1.95 -1.07,0.45 -2.28,0.68 -3.63,0.68 -1.35,0 -2.56,-0.23 -3.63,-0.68 -1.07,-0.45 -1.97,-1.1 -2.71,-1.95 -0.74,-0.84 -1.3,-1.86 -1.69,-3.05 -0.39,-1.19 -0.58,-2.52 -0.58,-4 0,-1.48 0.19,-2.82 0.58,-4.01 0.38,-1.2 0.95,-2.22 1.69,-3.07 0.74,-0.84 1.64,-1.5 2.71,-1.96 1.06,-0.46 2.28,-0.69 3.63,-0.69 m 0,17.98 c 1.12,0 2.11,-0.19 2.95,-0.58 0.84,-0.38 1.54,-0.94 2.1,-1.66 0.56,-0.72 0.98,-1.59 1.26,-2.6 0.28,-1.02 0.42,-2.16 0.42,-3.42 0,-1.25 -0.14,-2.39 -0.42,-3.41 -0.28,-1.02 -0.7,-1.9 -1.26,-2.63 -0.56,-0.73 -1.26,-1.29 -2.1,-1.68 -0.84,-0.39 -1.82,-0.59 -2.95,-0.59 -1.12,0 -2.11,0.2 -2.95,0.59 -0.84,0.39 -1.54,0.95 -2.1,1.68 -0.56,0.73 -0.99,1.6 -1.27,2.63 -0.29,1.02 -0.43,2.16 -0.43,3.41 0,1.26 0.14,2.4 0.43,3.42 0.28,1.01 0.71,1.88 1.27,2.6 0.56,0.72 1.26,1.27 2.1,1.66 0.84,0.39 1.82,0.58 2.95,0.58"
         inkscape:connector-curvature="0" />
      <path
         id="path1888"
         d="m 413.01,492.68 c -0.1,0.17 -0.25,0.26 -0.44,0.26 -0.14,0 -0.32,-0.08 -0.53,-0.24 -0.22,-0.16 -0.5,-0.34 -0.86,-0.53 -0.36,-0.2 -0.8,-0.38 -1.33,-0.54 -0.54,-0.15 -1.18,-0.24 -1.94,-0.24 -0.68,0 -1.31,0.1 -1.87,0.3 -0.56,0.2 -1.04,0.46 -1.44,0.78 -0.4,0.33 -0.7,0.71 -0.92,1.15 -0.22,0.44 -0.32,0.9 -0.32,1.37 0,0.6 0.15,1.09 0.46,1.48 0.3,0.39 0.7,0.73 1.18,1.01 0.49,0.28 1.05,0.51 1.68,0.72 0.63,0.2 1.27,0.4 1.92,0.6 0.65,0.21 1.29,0.43 1.93,0.67 0.63,0.25 1.19,0.55 1.68,0.92 0.48,0.36 0.88,0.81 1.18,1.34 0.31,0.53 0.46,1.18 0.46,1.94 0,0.82 -0.14,1.59 -0.44,2.29 -0.29,0.71 -0.72,1.32 -1.28,1.84 -0.56,0.52 -1.26,0.93 -2.08,1.23 -0.82,0.3 -1.76,0.45 -2.82,0.45 -1.33,0 -2.47,-0.21 -3.43,-0.64 -0.96,-0.42 -1.82,-0.98 -2.58,-1.66 l 0.41,-0.64 c 0.07,-0.1 0.14,-0.18 0.22,-0.23 0.08,-0.05 0.19,-0.08 0.33,-0.08 0.16,0 0.36,0.1 0.6,0.3 0.24,0.2 0.55,0.42 0.94,0.65 0.39,0.24 0.88,0.45 1.45,0.66 0.58,0.2 1.29,0.3 2.13,0.3 0.79,0 1.5,-0.11 2.1,-0.33 0.61,-0.23 1.11,-0.52 1.52,-0.9 0.4,-0.38 0.71,-0.82 0.92,-1.34 0.21,-0.51 0.32,-1.05 0.32,-1.62 0,-0.63 -0.15,-1.15 -0.46,-1.57 -0.3,-0.42 -0.7,-0.77 -1.19,-1.06 -0.49,-0.29 -1.05,-0.54 -1.68,-0.74 -0.63,-0.2 -1.27,-0.4 -1.92,-0.6 -0.66,-0.21 -1.3,-0.42 -1.93,-0.67 -0.62,-0.24 -1.18,-0.54 -1.68,-0.91 -0.49,-0.37 -0.89,-0.81 -1.19,-1.34 -0.31,-0.52 -0.46,-1.17 -0.46,-1.96 0,-0.67 0.14,-1.31 0.44,-1.93 0.29,-0.62 0.7,-1.16 1.24,-1.63 0.54,-0.47 1.19,-0.84 1.96,-1.12 0.77,-0.28 1.64,-0.42 2.59,-0.42 1.15,0 2.17,0.16 3.06,0.49 0.89,0.33 1.7,0.83 2.43,1.51 z"
         inkscape:connector-curvature="0" />
      <path
         id="path1890"
         d="m 423.26,509.51 c -1.28,0 -2.27,-0.35 -2.99,-1.06 -0.71,-0.71 -1.07,-1.8 -1.07,-3.28 v -12.89 h -2.71 c -0.14,0 -0.25,-0.04 -0.34,-0.11 -0.09,-0.08 -0.13,-0.19 -0.13,-0.32 v -0.7 l 3.22,-0.23 0.45,-6.75 c 0.03,-0.11 0.08,-0.22 0.15,-0.3 0.08,-0.09 0.19,-0.13 0.32,-0.13 h 0.85 v 7.2 h 5.95 v 1.35 h -5.95 v 12.8 c 0,0.51 0.06,0.96 0.2,1.33 0.13,0.37 0.31,0.68 0.55,0.92 0.23,0.24 0.5,0.42 0.82,0.53 0.31,0.11 0.65,0.17 1.02,0.17 0.45,0 0.85,-0.07 1.18,-0.2 0.33,-0.13 0.61,-0.28 0.85,-0.44 0.24,-0.16 0.44,-0.3 0.59,-0.43 0.15,-0.13 0.27,-0.2 0.36,-0.2 0.1,0 0.2,0.06 0.3,0.19 l 0.49,0.8 c -0.48,0.53 -1.09,0.96 -1.83,1.28 -0.71,0.31 -1.48,0.47 -2.28,0.47"
         inkscape:connector-curvature="0" />
      <path
         id="path1892"
         d="m 431.04,499.03 v 0.36 c 0,1.42 0.16,2.66 0.49,3.74 0.33,1.07 0.8,1.97 1.4,2.7 0.61,0.73 1.34,1.28 2.2,1.64 0.85,0.37 1.82,0.55 2.88,0.55 0.95,0 1.77,-0.11 2.46,-0.32 0.69,-0.21 1.28,-0.44 1.75,-0.7 0.47,-0.26 0.85,-0.49 1.13,-0.7 0.28,-0.21 0.48,-0.32 0.61,-0.32 0.16,0 0.29,0.07 0.38,0.19 l 0.49,0.61 c -0.24,0.29 -0.54,0.57 -0.9,0.84 -0.36,0.26 -0.76,0.5 -1.19,0.72 -0.44,0.22 -0.91,0.4 -1.41,0.57 -0.5,0.16 -1.03,0.29 -1.57,0.38 -0.26,0.15 -0.52,0.33 -0.8,0.55 -0.28,0.22 -0.53,0.46 -0.76,0.73 -0.24,0.27 -0.43,0.57 -0.58,0.91 -0.15,0.34 -0.23,0.69 -0.23,1.07 0,0.61 0.21,1.08 0.61,1.41 0.4,0.34 0.93,0.5 1.55,0.5 0.36,0 0.65,-0.04 0.89,-0.11 0.24,-0.07 0.44,-0.14 0.6,-0.22 0.16,-0.07 0.29,-0.15 0.39,-0.22 0.1,-0.07 0.18,-0.1 0.25,-0.1 0.1,0 0.19,0.05 0.25,0.15 l 0.3,0.65 c -0.35,0.3 -0.8,0.55 -1.33,0.73 -0.54,0.19 -1.1,0.27 -1.68,0.27 -0.98,0 -1.75,-0.24 -2.34,-0.71 -0.59,-0.47 -0.88,-1.13 -0.88,-1.96 0,-0.35 0.06,-0.7 0.18,-1.02 0.12,-0.33 0.29,-0.64 0.49,-0.93 0.21,-0.29 0.45,-0.57 0.71,-0.82 0.26,-0.26 0.55,-0.49 0.85,-0.71 h -0.34 c -1.29,0 -2.46,-0.22 -3.52,-0.67 -1.06,-0.45 -1.97,-1.1 -2.73,-1.96 -0.76,-0.86 -1.35,-1.91 -1.75,-3.15 -0.41,-1.25 -0.62,-2.67 -0.62,-4.28 0,-1.35 0.2,-2.6 0.58,-3.74 0.39,-1.14 0.94,-2.13 1.67,-2.96 0.73,-0.82 1.62,-1.47 2.67,-1.94 1.06,-0.47 2.25,-0.7 3.59,-0.7 1.06,0 2.05,0.19 2.96,0.55 0.91,0.37 1.7,0.9 2.37,1.6 0.67,0.7 1.2,1.56 1.58,2.59 0.39,1.02 0.58,2.2 0.58,3.53 0,0.28 -0.04,0.47 -0.11,0.57 -0.07,0.1 -0.2,0.15 -0.38,0.15 h -13.74 z m 12.58,-1.16 c 0,-1.01 -0.14,-1.91 -0.43,-2.72 -0.28,-0.8 -0.68,-1.48 -1.2,-2.04 -0.52,-0.56 -1.13,-0.98 -1.85,-1.28 -0.72,-0.3 -1.5,-0.45 -2.36,-0.45 -0.98,0 -1.85,0.15 -2.62,0.46 -0.77,0.31 -1.44,0.74 -2,1.31 -0.56,0.57 -1.01,1.25 -1.36,2.05 -0.34,0.79 -0.57,1.69 -0.68,2.67 z"
         inkscape:connector-curvature="0" />
      <path
         id="path1894"
         d="m 451.26,493.74 c 0.83,-1.14 1.81,-2.04 2.93,-2.71 1.12,-0.67 2.37,-1.01 3.76,-1.01 2.31,0 4.12,0.8 5.41,2.41 1.3,1.61 1.94,4.01 1.94,7.22 0,1.38 -0.18,2.66 -0.54,3.86 -0.36,1.2 -0.89,2.23 -1.59,3.11 -0.7,0.88 -1.56,1.57 -2.58,2.07 -1.02,0.51 -2.19,0.76 -3.52,0.76 -1.28,0 -2.38,-0.23 -3.31,-0.7 -0.94,-0.47 -1.75,-1.16 -2.43,-2.07 v 9.19 h -1.82 v -25.53 h 1 c 0.32,0 0.5,0.16 0.55,0.47 z m 0.08,11.36 c 0.37,0.55 0.75,1 1.15,1.38 0.4,0.37 0.82,0.67 1.26,0.91 0.44,0.24 0.91,0.4 1.41,0.5 0.49,0.1 1.02,0.15 1.58,0.15 1.11,0 2.09,-0.2 2.92,-0.61 0.83,-0.4 1.53,-0.98 2.1,-1.71 0.56,-0.74 0.99,-1.63 1.27,-2.66 0.29,-1.03 0.43,-2.16 0.43,-3.4 0,-2.81 -0.52,-4.87 -1.55,-6.19 -1.04,-1.32 -2.52,-1.98 -4.46,-1.98 -1.25,0 -2.38,0.32 -3.39,0.97 -1.01,0.65 -1.91,1.54 -2.71,2.69 v 9.95 z"
         inkscape:connector-curvature="0" />
      <path
         id="path1896"
         d="m 471.51,493.65 c 0.87,-1.09 1.88,-1.96 3.02,-2.61 1.14,-0.66 2.42,-0.99 3.82,-0.99 1.04,0 1.95,0.16 2.74,0.49 0.79,0.33 1.44,0.8 1.96,1.42 0.51,0.62 0.91,1.37 1.17,2.24 0.27,0.87 0.4,1.86 0.4,2.96 v 12.06 h -1.82 v -12.06 c 0,-1.77 -0.41,-3.16 -1.21,-4.16 -0.81,-1.01 -2.04,-1.51 -3.7,-1.51 -1.22,0 -2.37,0.31 -3.44,0.94 -1.07,0.62 -2.02,1.49 -2.85,2.6 v 14.18 h -1.82 v -18.86 h 1.01 c 0.32,0 0.5,0.15 0.55,0.47 z"
         inkscape:connector-curvature="0" />
      <path
         id="path1898"
         d="m 497.46,490.05 c 1.35,0 2.56,0.23 3.63,0.69 1.07,0.46 1.97,1.12 2.7,1.96 0.73,0.85 1.29,1.87 1.68,3.07 0.39,1.19 0.58,2.53 0.58,4.01 0,1.48 -0.19,2.81 -0.58,4 -0.38,1.19 -0.94,2.21 -1.68,3.05 -0.73,0.85 -1.63,1.5 -2.7,1.95 -1.07,0.45 -2.28,0.68 -3.63,0.68 -1.35,0 -2.56,-0.23 -3.63,-0.68 -1.07,-0.45 -1.97,-1.1 -2.71,-1.95 -0.74,-0.84 -1.3,-1.86 -1.69,-3.05 -0.38,-1.19 -0.58,-2.52 -0.58,-4 0,-1.48 0.2,-2.82 0.58,-4.01 0.39,-1.2 0.95,-2.22 1.69,-3.07 0.74,-0.84 1.65,-1.5 2.71,-1.96 1.06,-0.46 2.27,-0.69 3.63,-0.69 m 0,17.98 c 1.12,0 2.11,-0.19 2.94,-0.58 0.84,-0.38 1.54,-0.94 2.11,-1.66 0.56,-0.72 0.98,-1.59 1.26,-2.6 0.28,-1.02 0.42,-2.16 0.42,-3.42 0,-1.25 -0.14,-2.39 -0.42,-3.41 -0.28,-1.02 -0.7,-1.9 -1.26,-2.63 -0.56,-0.73 -1.27,-1.29 -2.11,-1.68 -0.84,-0.39 -1.82,-0.59 -2.94,-0.59 -1.13,0 -2.11,0.2 -2.95,0.59 -0.84,0.39 -1.54,0.95 -2.1,1.68 -0.57,0.73 -0.99,1.6 -1.27,2.63 -0.28,1.02 -0.43,2.16 -0.43,3.41 0,1.26 0.14,2.4 0.43,3.42 0.29,1.01 0.71,1.88 1.27,2.6 0.56,0.72 1.26,1.27 2.1,1.66 0.84,0.39 1.82,0.58 2.95,0.58"
         inkscape:connector-curvature="0" />
      <path
         id="path1900"
         d="m 520.87,492.68 c -0.1,0.17 -0.25,0.27 -0.44,0.27 -0.14,0 -0.32,-0.08 -0.53,-0.24 -0.22,-0.16 -0.5,-0.33 -0.86,-0.53 -0.36,-0.2 -0.81,-0.37 -1.34,-0.53 -0.53,-0.16 -1.17,-0.24 -1.93,-0.24 -0.68,0 -1.31,0.1 -1.87,0.3 -0.56,0.2 -1.04,0.46 -1.44,0.79 -0.4,0.33 -0.71,0.71 -0.92,1.15 -0.22,0.43 -0.32,0.89 -0.32,1.37 0,0.6 0.15,1.09 0.45,1.48 0.31,0.39 0.7,0.73 1.19,1.01 0.48,0.28 1.04,0.51 1.68,0.72 0.63,0.2 1.27,0.4 1.93,0.61 0.65,0.2 1.29,0.43 1.92,0.67 0.63,0.25 1.19,0.55 1.68,0.92 0.49,0.37 0.89,0.81 1.19,1.35 0.3,0.53 0.45,1.17 0.45,1.94 0,0.82 -0.14,1.59 -0.43,2.29 -0.29,0.71 -0.72,1.32 -1.28,1.84 -0.56,0.52 -1.25,0.93 -2.07,1.24 -0.82,0.3 -1.77,0.45 -2.83,0.45 -1.33,0 -2.47,-0.21 -3.43,-0.63 -0.96,-0.42 -1.82,-0.98 -2.57,-1.66 l 0.42,-0.65 c 0.06,-0.1 0.13,-0.18 0.22,-0.23 0.08,-0.05 0.2,-0.08 0.33,-0.08 0.16,0 0.36,0.1 0.6,0.3 0.23,0.21 0.55,0.42 0.94,0.66 0.39,0.23 0.88,0.45 1.45,0.65 0.57,0.21 1.28,0.31 2.13,0.31 0.8,0 1.5,-0.11 2.11,-0.33 0.61,-0.22 1.11,-0.52 1.52,-0.9 0.4,-0.38 0.71,-0.82 0.92,-1.34 0.21,-0.51 0.31,-1.05 0.31,-1.62 0,-0.63 -0.15,-1.16 -0.45,-1.58 -0.31,-0.42 -0.7,-0.77 -1.2,-1.06 -0.49,-0.29 -1.05,-0.54 -1.68,-0.74 -0.63,-0.2 -1.27,-0.4 -1.92,-0.61 -0.66,-0.2 -1.3,-0.42 -1.92,-0.66 -0.63,-0.24 -1.19,-0.54 -1.68,-0.91 -0.49,-0.37 -0.9,-0.81 -1.2,-1.34 -0.3,-0.52 -0.45,-1.18 -0.45,-1.96 0,-0.67 0.14,-1.31 0.43,-1.93 0.29,-0.62 0.7,-1.16 1.24,-1.63 0.54,-0.46 1.19,-0.84 1.96,-1.12 0.77,-0.28 1.64,-0.42 2.59,-0.42 1.15,0 2.17,0.16 3.06,0.49 0.89,0.33 1.7,0.83 2.44,1.51 z m -0.9,-10.6 -4.11,4.8 c -0.1,0.12 -0.21,0.21 -0.31,0.26 -0.11,0.04 -0.24,0.06 -0.39,0.06 h -1.08 l 2.98,-4.51 c 0.14,-0.23 0.29,-0.39 0.44,-0.47 0.15,-0.09 0.38,-0.13 0.68,-0.13 h 1.79 z"
         inkscape:connector-curvature="0" />
      <path
         id="path1902"
         d="m 538.65,492.87 c -0.07,0.07 -0.12,0.12 -0.18,0.16 -0.05,0.05 -0.13,0.06 -0.24,0.06 -0.13,0 -0.3,-0.08 -0.51,-0.25 -0.22,-0.17 -0.51,-0.36 -0.87,-0.56 -0.37,-0.2 -0.82,-0.39 -1.37,-0.56 -0.55,-0.17 -1.22,-0.26 -2,-0.26 -1.09,0 -2.05,0.2 -2.89,0.58 -0.84,0.39 -1.55,0.94 -2.13,1.66 -0.58,0.72 -1.02,1.6 -1.32,2.61 -0.3,1.02 -0.45,2.17 -0.45,3.45 0,1.32 0.15,2.5 0.47,3.52 0.31,1.02 0.75,1.88 1.32,2.59 0.57,0.7 1.26,1.24 2.07,1.6 0.81,0.37 1.71,0.55 2.69,0.55 0.91,0 1.67,-0.1 2.28,-0.32 0.62,-0.21 1.12,-0.45 1.52,-0.7 0.4,-0.25 0.71,-0.48 0.94,-0.7 0.23,-0.22 0.42,-0.33 0.57,-0.33 0.15,0 0.28,0.07 0.38,0.19 l 0.48,0.61 c -0.29,0.38 -0.66,0.73 -1.1,1.06 -0.44,0.33 -0.94,0.61 -1.5,0.85 -0.56,0.24 -1.15,0.43 -1.81,0.56 -0.65,0.13 -1.33,0.2 -2.04,0.2 -1.2,0 -2.3,-0.22 -3.29,-0.66 -0.99,-0.44 -1.84,-1.07 -2.56,-1.89 -0.71,-0.83 -1.27,-1.84 -1.67,-3.04 -0.4,-1.2 -0.6,-2.57 -0.6,-4.1 0,-1.44 0.19,-2.76 0.57,-3.94 0.38,-1.19 0.94,-2.21 1.67,-3.07 0.73,-0.86 1.63,-1.53 2.68,-2 1.06,-0.47 2.26,-0.71 3.63,-0.71 1.23,0 2.31,0.2 3.26,0.59 0.95,0.39 1.78,0.92 2.49,1.59 z"
         inkscape:connector-curvature="0" />
      <path
         id="path1904"
         d="m 545.98,483.85 c 0,0.23 -0.05,0.44 -0.14,0.63 -0.09,0.2 -0.22,0.37 -0.37,0.52 -0.15,0.15 -0.33,0.27 -0.53,0.36 -0.21,0.09 -0.42,0.13 -0.65,0.13 -0.23,0 -0.44,-0.05 -0.64,-0.13 -0.21,-0.09 -0.38,-0.21 -0.53,-0.36 -0.15,-0.15 -0.28,-0.32 -0.36,-0.52 -0.08,-0.19 -0.13,-0.41 -0.13,-0.63 0,-0.23 0.05,-0.45 0.13,-0.66 0.09,-0.21 0.21,-0.39 0.36,-0.54 0.15,-0.15 0.33,-0.27 0.53,-0.36 0.2,-0.09 0.41,-0.13 0.64,-0.13 0.23,0 0.44,0.04 0.65,0.13 0.2,0.09 0.38,0.21 0.53,0.36 0.15,0.15 0.28,0.33 0.37,0.54 0.1,0.21 0.14,0.43 0.14,0.66 m -0.77,25.36 h -1.8 v -18.86 h 1.8 z"
         inkscape:connector-curvature="0" />
      <path
         id="path1906"
         d="m 580.84,504.7 c 0.13,0 0.24,0.05 0.33,0.13 l 0.75,0.81 c -0.56,0.59 -1.16,1.13 -1.81,1.6 -0.65,0.47 -1.36,0.88 -2.14,1.21 -0.78,0.34 -1.63,0.6 -2.56,0.78 -0.93,0.18 -1.95,0.27 -3.06,0.27 -1.86,0 -3.56,-0.33 -5.11,-0.98 -1.55,-0.65 -2.88,-1.57 -3.99,-2.77 -1.11,-1.19 -1.97,-2.64 -2.58,-4.33 -0.62,-1.69 -0.92,-3.57 -0.92,-5.65 0,-2.04 0.32,-3.89 0.95,-5.57 0.63,-1.68 1.52,-3.12 2.66,-4.33 1.14,-1.2 2.5,-2.14 4.1,-2.81 1.59,-0.66 3.35,-1 5.27,-1 1.83,0 3.46,0.29 4.87,0.85 1.42,0.57 2.71,1.37 3.87,2.41 l -0.59,0.85 c -0.1,0.15 -0.26,0.23 -0.47,0.23 -0.15,0 -0.4,-0.14 -0.74,-0.42 -0.34,-0.28 -0.82,-0.58 -1.42,-0.92 -0.61,-0.34 -1.37,-0.64 -2.27,-0.92 -0.91,-0.28 -1.99,-0.42 -3.25,-0.42 -1.62,0 -3.1,0.28 -4.44,0.83 -1.35,0.56 -2.5,1.35 -3.47,2.39 -0.97,1.04 -1.72,2.3 -2.26,3.79 -0.55,1.49 -0.82,3.17 -0.82,5.02 0,1.89 0.28,3.59 0.83,5.08 0.55,1.49 1.3,2.76 2.26,3.78 0.96,1.03 2.09,1.82 3.4,2.37 1.31,0.55 2.72,0.83 4.24,0.83 0.96,0 1.82,-0.06 2.57,-0.19 0.75,-0.12 1.44,-0.32 2.07,-0.57 0.63,-0.25 1.22,-0.56 1.76,-0.93 0.54,-0.37 1.08,-0.8 1.61,-1.29 0.06,-0.05 0.13,-0.09 0.19,-0.12 0.05,0 0.11,-0.01 0.17,-0.01"
         inkscape:connector-curvature="0" />
      <path
         id="path1908"
         d="m 600.17,490.35 -10.84,24.93 c -0.07,0.17 -0.17,0.32 -0.29,0.43 -0.12,0.11 -0.29,0.17 -0.52,0.17 h -1.29 l 3.32,-7.37 -7.98,-18.16 h 1.5 c 0.19,0 0.34,0.05 0.45,0.14 0.11,0.09 0.19,0.2 0.23,0.32 l 6.35,14.67 c 0.07,0.19 0.14,0.38 0.2,0.58 0.06,0.2 0.11,0.39 0.16,0.6 0.06,-0.2 0.13,-0.4 0.2,-0.6 0.07,-0.2 0.14,-0.39 0.22,-0.58 l 6.27,-14.67 c 0.06,-0.14 0.15,-0.25 0.27,-0.33 0.11,-0.08 0.24,-0.12 0.38,-0.12 h 1.37 z"
         inkscape:connector-curvature="0" />
      <path
         id="path1910"
         d="m 604.42,509.21 v -16.89 l -2.65,-0.17 c -0.36,-0.04 -0.53,-0.2 -0.53,-0.47 v -0.74 h 3.18 v -2.39 c 0,-1.07 0.14,-2.02 0.42,-2.83 0.28,-0.82 0.67,-1.5 1.18,-2.04 0.5,-0.54 1.11,-0.95 1.82,-1.22 0.71,-0.27 1.49,-0.41 2.35,-0.41 0.39,0 0.78,0.03 1.18,0.1 0.4,0.07 0.76,0.17 1.07,0.29 l -0.06,0.87 c -0.03,0.11 -0.08,0.19 -0.16,0.22 -0.08,0.03 -0.2,0.04 -0.35,0.04 -0.15,-0.01 -0.35,-0.02 -0.59,-0.06 -0.24,-0.03 -0.51,-0.04 -0.83,-0.04 -0.62,0 -1.19,0.09 -1.72,0.27 -0.53,0.18 -0.98,0.47 -1.36,0.88 -0.38,0.4 -0.67,0.94 -0.88,1.59 -0.21,0.65 -0.31,1.45 -0.31,2.4 v 2.33 h 6.13 v 1.35 h -6.07 v 16.93 h -1.82 z"
         inkscape:connector-curvature="0" />
      <path
         id="path1912"
         d="m 617.29,494.9 c 0.29,-0.77 0.62,-1.46 0.99,-2.05 0.37,-0.6 0.8,-1.11 1.29,-1.53 0.48,-0.42 1.03,-0.74 1.63,-0.96 0.6,-0.22 1.27,-0.33 2,-0.33 0.39,0 0.77,0.03 1.16,0.1 0.38,0.07 0.71,0.2 1,0.37 l -0.15,1.25 c -0.06,0.21 -0.18,0.3 -0.36,0.3 -0.15,0 -0.38,-0.04 -0.69,-0.13 -0.31,-0.09 -0.72,-0.13 -1.22,-0.13 -0.73,0 -1.38,0.11 -1.94,0.33 -0.56,0.22 -1.07,0.56 -1.52,1 -0.45,0.44 -0.84,0.99 -1.17,1.64 -0.34,0.65 -0.64,1.4 -0.92,2.25 v 12.21 h -1.82 v -18.86 h 0.97 c 0.22,0 0.37,0.05 0.45,0.13 0.09,0.09 0.14,0.24 0.17,0.45 z"
         inkscape:connector-curvature="0" />
      <path
         id="path1914"
         d="m 634.73,490.05 c 1.35,0 2.56,0.23 3.63,0.69 1.07,0.46 1.97,1.12 2.7,1.96 0.73,0.85 1.29,1.87 1.68,3.07 0.39,1.19 0.58,2.53 0.58,4.01 0,1.48 -0.19,2.81 -0.58,4 -0.38,1.19 -0.94,2.21 -1.68,3.05 -0.73,0.85 -1.63,1.5 -2.7,1.95 -1.07,0.45 -2.28,0.68 -3.63,0.68 -1.35,0 -2.56,-0.23 -3.63,-0.68 -1.07,-0.45 -1.97,-1.1 -2.71,-1.95 -0.74,-0.84 -1.3,-1.86 -1.69,-3.05 -0.38,-1.19 -0.58,-2.52 -0.58,-4 0,-1.48 0.2,-2.82 0.58,-4.01 0.39,-1.2 0.95,-2.22 1.69,-3.07 0.74,-0.84 1.65,-1.5 2.71,-1.96 1.07,-0.46 2.28,-0.69 3.63,-0.69 m 0,17.98 c 1.12,0 2.11,-0.19 2.94,-0.58 0.84,-0.38 1.54,-0.94 2.11,-1.66 0.56,-0.72 0.98,-1.59 1.26,-2.6 0.28,-1.02 0.42,-2.16 0.42,-3.42 0,-1.25 -0.14,-2.39 -0.42,-3.41 -0.28,-1.02 -0.7,-1.9 -1.26,-2.63 -0.56,-0.73 -1.27,-1.29 -2.11,-1.68 -0.84,-0.39 -1.82,-0.59 -2.94,-0.59 -1.13,0 -2.11,0.2 -2.95,0.59 -0.84,0.39 -1.54,0.95 -2.1,1.68 -0.57,0.73 -0.99,1.6 -1.27,2.63 -0.28,1.02 -0.43,2.16 -0.43,3.41 0,1.26 0.14,2.4 0.43,3.42 0.29,1.01 0.71,1.88 1.27,2.6 0.56,0.72 1.26,1.27 2.1,1.66 0.84,0.39 1.83,0.58 2.95,0.58"
         inkscape:connector-curvature="0" />
      <path
         id="path1916"
         d="m 672.47,490.35 -6.29,18.86 h -1.35 c -0.22,0 -0.36,-0.13 -0.43,-0.4 l -5.16,-15.31 c -0.06,-0.19 -0.12,-0.38 -0.17,-0.57 -0.05,-0.19 -0.09,-0.38 -0.13,-0.57 -0.06,0.38 -0.16,0.75 -0.29,1.14 l -5.23,15.31 c -0.08,0.27 -0.23,0.4 -0.46,0.4 h -1.29 l -6.29,-18.86 h 1.36 c 0.18,0 0.32,0.05 0.44,0.14 0.12,0.09 0.19,0.2 0.23,0.32 l 4.76,14.88 c 0.07,0.29 0.14,0.57 0.21,0.84 0.07,0.27 0.11,0.54 0.15,0.8 0.08,-0.27 0.15,-0.53 0.23,-0.8 0.07,-0.27 0.16,-0.55 0.27,-0.84 l 5.04,-15.01 c 0.09,-0.28 0.26,-0.42 0.53,-0.42 h 0.74 c 0.28,0 0.46,0.14 0.55,0.42 l 5,15.01 c 0.09,0.29 0.17,0.57 0.25,0.83 0.08,0.27 0.14,0.53 0.21,0.79 0.05,-0.27 0.1,-0.53 0.16,-0.79 0.05,-0.27 0.13,-0.54 0.22,-0.83 l 4.8,-14.88 c 0.05,-0.14 0.13,-0.25 0.25,-0.33 0.11,-0.08 0.25,-0.12 0.4,-0.12 h 1.29 z"
         inkscape:connector-curvature="0" />
      <path
         id="path1918"
         d="m 676.3,499.03 v 0.36 c 0,1.42 0.16,2.66 0.49,3.74 0.33,1.07 0.8,1.97 1.4,2.7 0.61,0.73 1.34,1.28 2.2,1.64 0.85,0.37 1.82,0.55 2.88,0.55 0.95,0 1.77,-0.11 2.46,-0.32 0.69,-0.21 1.28,-0.44 1.75,-0.7 0.47,-0.26 0.85,-0.49 1.13,-0.7 0.28,-0.21 0.48,-0.32 0.61,-0.32 0.16,0 0.29,0.07 0.38,0.19 l 0.49,0.61 c -0.3,0.38 -0.7,0.73 -1.2,1.06 -0.5,0.33 -1.06,0.61 -1.67,0.84 -0.61,0.24 -1.27,0.42 -1.97,0.56 -0.7,0.14 -1.4,0.21 -2.11,0.21 -1.29,0 -2.46,-0.22 -3.52,-0.67 -1.06,-0.45 -1.97,-1.1 -2.73,-1.96 -0.76,-0.86 -1.35,-1.91 -1.75,-3.15 -0.41,-1.25 -0.62,-2.67 -0.62,-4.28 0,-1.35 0.2,-2.6 0.58,-3.74 0.39,-1.14 0.94,-2.13 1.67,-2.96 0.73,-0.82 1.62,-1.47 2.67,-1.94 1.06,-0.47 2.25,-0.7 3.59,-0.7 1.06,0 2.05,0.19 2.96,0.55 0.91,0.37 1.7,0.9 2.37,1.6 0.67,0.7 1.2,1.56 1.58,2.59 0.39,1.02 0.58,2.2 0.58,3.53 0,0.28 -0.04,0.47 -0.11,0.57 -0.07,0.1 -0.2,0.15 -0.38,0.15 H 676.3 Z m 12.59,-1.16 c 0,-1.01 -0.14,-1.91 -0.43,-2.72 -0.28,-0.8 -0.68,-1.48 -1.2,-2.04 -0.52,-0.56 -1.13,-0.98 -1.85,-1.28 -0.72,-0.3 -1.5,-0.45 -2.36,-0.45 -0.98,0 -1.85,0.15 -2.62,0.46 -0.77,0.31 -1.44,0.74 -2,1.31 -0.56,0.57 -1.01,1.25 -1.36,2.05 -0.34,0.79 -0.57,1.69 -0.68,2.67 z"
         inkscape:connector-curvature="0" />
      <path
         id="path1920"
         d="m 696.8,490.35 v 21.27 c 0,0.66 -0.1,1.27 -0.28,1.82 -0.19,0.56 -0.47,1.04 -0.84,1.45 -0.38,0.41 -0.84,0.73 -1.4,0.97 -0.56,0.23 -1.22,0.35 -1.98,0.35 -0.37,0 -0.69,-0.03 -0.99,-0.09 -0.29,-0.06 -0.58,-0.16 -0.85,-0.3 l 0.09,-0.91 c 0.04,-0.11 0.09,-0.18 0.15,-0.2 0.06,-0.02 0.15,-0.02 0.26,0 0.1,0.02 0.24,0.04 0.41,0.07 0.16,0.03 0.37,0.05 0.63,0.05 1.02,0 1.78,-0.28 2.27,-0.83 0.49,-0.56 0.74,-1.34 0.74,-2.37 v -21.27 h 1.79 z m 0.77,-6.5 c 0,0.23 -0.05,0.44 -0.14,0.63 -0.09,0.2 -0.22,0.37 -0.38,0.52 -0.16,0.15 -0.34,0.27 -0.54,0.36 -0.21,0.09 -0.42,0.13 -0.65,0.13 -0.23,0 -0.44,-0.04 -0.64,-0.13 -0.2,-0.09 -0.38,-0.21 -0.53,-0.36 -0.15,-0.15 -0.28,-0.33 -0.36,-0.52 -0.09,-0.19 -0.13,-0.41 -0.13,-0.63 0,-0.23 0.04,-0.45 0.13,-0.65 0.09,-0.21 0.21,-0.39 0.36,-0.54 0.15,-0.15 0.33,-0.28 0.53,-0.36 0.2,-0.09 0.42,-0.13 0.64,-0.13 0.23,0 0.44,0.04 0.65,0.13 0.2,0.09 0.38,0.21 0.54,0.36 0.16,0.15 0.28,0.33 0.38,0.54 0.09,0.2 0.14,0.42 0.14,0.65"
         inkscape:connector-curvature="0" />
    </g>
    <path
       inkscape:export-ydpi="89"
       inkscape:export-xdpi="89"
       inkscape:export-filename="C:\Users\zwias_000\Downloads\lepszy.png"
       class="st0"
       d="m 73.637342,27.667141 c 1.263418,0.265543 2.522696,0.549758 3.728029,1.028989 4.906381,1.948036 8.40413,5.356578 10.482868,10.198653 1.188732,2.769567 -0.612003,5.723771 -3.61185,6.014215 -1.773771,0.172194 -3.520571,-0.894146 -4.281945,-2.659617 -0.755146,-1.748871 -1.8692,-3.205226 -3.418913,-4.31513 -5.918787,-4.244594 -14.231639,-0.987505 -15.721187,6.155287 -1.16799,5.60345 2.755046,11.169556 8.41451,11.937152 4.638768,0.628594 8.833576,-1.75925 10.72559,-6.105502 1.211562,-2.779939 4.642917,-3.555835 6.866877,-1.551784 1.373368,1.236447 1.800734,3.201084 1.008246,4.968626 -2.777868,6.18433 -7.4851,9.984965 -14.181854,11.128063 -9.980815,1.703235 -19.525973,-5.091026 -21.318416,-15.06355 -0.280064,-1.555934 -0.325708,-3.120168 -0.265543,-4.692702 0.0166,-0.0602 0.0415,-0.118251 0.04561,-0.178416 0.09129,-1.331883 0.36513,-2.628495 0.748924,-3.904364 0.533174,-1.784143 1.369227,-3.420992 2.362952,-4.983147 0.05601,-0.0332 0.08091,-0.08091 0.06221,-0.145222 l -0.0061,0.0044 c 0.08921,-0.0044 0.12448,-0.07881 0.165965,-0.136921 1.802814,-2.551739 4.118052,-4.514297 6.887619,-5.945759 0.136922,-0.06221 0.273844,-0.122401 0.410766,-0.186716 2.790318,-1.306982 5.7217,-1.887871 8.800383,-1.74887 0.70121,0.02901 1.39619,0.136922 2.095329,0.182565 z"
       id="path1924"
       inkscape:connector-curvature="0"
       style="fill:#7e4795;stroke-width:0.2074583" />
    <path
       inkscape:export-ydpi="89"
       inkscape:export-xdpi="89"
       inkscape:export-filename="C:\Users\zwias_000\Downloads\lepszy.png"
       class="st1"
       d="m 73.637342,27.667141 c -0.70121,-0.04561 -1.39412,-0.153523 -2.097409,-0.186716 -3.078675,-0.138992 -6.010065,0.441888 -8.800375,1.748871 -0.136921,0.06431 -0.273843,0.12448 -0.410774,0.186715 0.07051,-0.132771 0.132781,-0.269693 0.213688,-0.394173 1.064261,-1.661742 2.132672,-3.323476 3.199004,-4.985218 1.945957,-3.014368 3.891923,-6.026666 5.8358,-9.043113 1.489557,-2.309009 2.970804,-4.624246 4.462432,-6.9291043 1.219854,-1.8837214 3.51227,-2.57041 5.474828,-1.6409912 2.416888,1.1451683 3.194854,4.0641085 1.786214,6.2465655 -1.551793,2.404446 -3.099426,4.808882 -4.649139,7.213328 -1.670042,2.595302 -3.342156,5.190604 -5.014269,7.783836 z"
       id="path1926"
       inkscape:connector-curvature="0"
       style="fill:#f08319;stroke-width:0.2074583" />
    <path
       inkscape:export-ydpi="89"
       inkscape:export-xdpi="89"
       inkscape:export-filename="C:\Users\zwias_000\Downloads\lepszy.png"
       class="st2"
       d="m 65.741476,24.038691 c -1.066332,1.661742 -2.134743,3.323484 -3.199004,4.985226 -0.08091,0.124471 -0.141072,0.263473 -0.213688,0.394174 -2.771638,1.431454 -5.084796,3.391941 -6.88761,5.94575 -0.0415,0.0581 -0.0747,0.132771 -0.165965,0.136921 -0.0311,-0.441887 0.09335,-0.867174 0.159744,-1.296611 0.286285,-1.867129 0.58503,-3.732179 0.873395,-5.597229 0.145222,-0.939781 0.273844,-1.881642 0.408695,-2.821432 0.174265,-1.064261 0.35683,-2.126442 0.522795,-3.190704 0.416986,-2.651317 0.825681,-5.302634 1.240596,-7.953959 0.267623,-1.709457 0.545617,-3.418913 0.800789,-5.1304404 0.311187,-2.0953294 2.097409,-3.6740849 4.21556,-3.7031276 2.084949,-0.029008 3.931328,1.5102902 4.290237,3.5724267 0.145214,0.8360613 -0.0332,1.6513713 -0.159743,2.4687603 -0.414916,2.690731 -0.838132,5.377312 -1.255127,8.068051 -0.213679,1.369227 -0.421137,2.744675 -0.630674,4.122194 z"
       id="path1928"
       inkscape:connector-curvature="0"
       style="fill:#df1465;stroke-width:0.2074583" />
    <path
       inkscape:export-ydpi="89"
       inkscape:export-xdpi="89"
       inkscape:export-filename="C:\Users\zwias_000\Downloads\lepszy.png"
       class="st3"
       d="m 56.717043,25.78342 c -0.134851,0.939781 -0.265552,1.881641 -0.408695,2.821431 -0.286294,1.867121 -0.58711,3.732171 -0.873395,5.597221 -0.0664,0.429445 -0.190866,0.854732 -0.159744,1.29662 0,0 0.0061,-0.0044 0.0061,-0.0044 -0.107879,0.0104 -0.05601,0.09128 -0.06221,0.145222 -0.993725,1.562155 -1.829786,3.201075 -2.362952,4.983147 -0.381723,1.27794 -0.655567,2.572481 -0.748925,3.904365 -0.0044,0.0602 -0.0311,0.11825 -0.04561,0.178415 C 51.468281,42.00018 50.87703,39.294928 50.279549,36.591746 49.308645,32.187409 48.333592,27.783062 47.364759,23.376654 47.103357,22.189992 46.7984,21.009552 46.609614,19.81044 c -0.35476,-2.252994 1.145168,-4.350394 3.364969,-4.810953 2.234331,-0.462639 4.456202,0.883766 5.008048,3.118097 0.522795,2.116072 0.954303,4.252894 1.429383,6.381417 0.09751,0.431516 0.203308,0.856803 0.304966,1.284169 z"
       id="path1930"
       inkscape:connector-curvature="0"
       style="fill:#177784;stroke-width:0.2074583" />
    <path
       inkscape:export-ydpi="89"
       inkscape:export-xdpi="89"
       inkscape:export-filename="C:\Users\zwias_000\Downloads\lepszy.png"
       class="st4"
       d="m 66.374229,46.20976 c 0,-2.435559 1.995742,-4.437531 4.43131,-4.447902 2.44385,-0.0104 4.464502,2.010272 4.456202,4.460352 -0.0087,2.433488 -2.016493,4.43131 -4.449981,4.42716 -2.433488,-0.0044 -4.437531,-2.010272 -4.437531,-4.43961 z"
       id="path1932"
       inkscape:connector-curvature="0"
       style="fill:#7e4796;stroke-width:0.2074583" />
    <path
       inkscape:export-ydpi="89"
       inkscape:export-xdpi="89"
       inkscape:export-filename="C:\Users\zwias_000\Downloads\lepszy.png"
       class="st2"
       d="m 55.219194,35.639764 c 0.0061,-0.05391 -0.04561,-0.134851 0.06221,-0.145222 0.0187,0.0664 -0.0044,0.1141 -0.06221,0.145222 z"
       id="path1934"
       inkscape:connector-curvature="0"
       style="fill:#df1465;stroke-width:0.2074583" />
  </g>
</svg>
